<svg xmlns="http://www.w3.org/2000/svg" viewBox="0 0 745 745"><path d="M72.1 550H146v13.2H49.5v-91.5h22.7V550zm95.4-65.7c14.4-8.5 34.6-13.9 56.6-13.9 22.2 0 42.2 5.4 56.8 13.9 14.1 8.5 23.3 20.2 23.3 33.1s-9.2 24.6-23.3 33.1c-14.6 8.6-34.6 13.9-56.8 13.9-22 0-42.2-5.2-56.6-13.9-14.1-8.5-23.3-20.2-23.3-33.1s9.2-24.6 23.3-33.1zm97.2 9.4c-10.5-6.1-25.1-10-40.6-10s-29.9 3.8-40.2 10-16.8 14.4-16.8 23.7 6.5 17.7 16.8 23.7 24.7 10 40.2 10 30.1-3.8 40.6-10c10.1-6 16.6-14.3 16.6-23.7s-6.5-17.7-16.6-23.7zm87.9 70V485H305v-13.4h117.6V485h-47.4v78.7h-22.6zm89.8-28v-64h22.9v64.2c0 10.1 18.6 15.1 35.2 15.1 16.4 0 35-5.1 35-15.2v-64h22.9V536c0 18.6-31 28.3-57.9 28.3-27.6-.1-58.1-9.8-58.1-28.6zm226.4-40.4c-3.1-8.2-18.4-11.8-32.1-11.6-10.5.1-22.2 2.2-28.5 6.9-3.1 2.4-4.3 5.4-3.8 8.5 1.1 9.4 18.9 10.6 35.7 11.5 21.5 1.6 48.2 4.8 54.3 19.5.7 1.9 1.1 4 1.1 6 0 17.7-30.1 27.9-58.3 27.9-24.2 0-53.6-8.4-56.5-24.8l-.2-2.5 22.9-.3.2 2v-.4c1.6 8.5 19.3 13 33.9 13 16.8 0 35.2-5.5 35.2-14.9 0-1.1-.3-2.1-.7-3.1-2.7-7-18.8-8.1-34.6-9-24.5-1.4-53.2-4.6-55.7-23.7v.1c-.9-6.1 1.8-12.3 8.5-17.4 10.5-8 29.4-12.2 47.6-12.2 24.2 0 49.4 7.3 53.4 24.1l-22.4.4z" fill="#cbccce"/><path d="M372.5 253.1c3.1-3.3 6.3-6.5 9.5-9.6 8.7-8.2 18-15.9 27.7-22.9-11.5-14.2-23.9-27.5-37.1-40.1-13.3 12.6-25.7 26-37.2 40.2 9.7 6.9 18.8 14.5 27.5 22.7 3.3 3.2 6.5 6.4 9.6 9.7h0zm248 89.1c14.5 5.8 28.5 12.9 41.7 21.3-26.7 48.4-59.5 84.9-109.3 89 34.8-24.2 55.4-65.2 67.6-110.3h0zm-69.6-124.5c15.5 43 15.6 91.1 3.1 135-11.5 40.1-34.8 79.5-68.9 104.4 78.2-4.9 129.8-73.6 135.2-253l-69.4 13.6zm-29.8-22.1c62.3 106.6-3.4 269.4-113 269.4-54.9 0-68.7-57.9-68.7-97.7.1-93.6 115.8-171.7 181.7-171.7z" fill="#7cb342"/><path d="M224 195.6c39.6 0 97.1 28.2 136.8 71-17.4 21.5-30.8 46.4-36.3 73.4-1.9 9-2.8 18.1-2.8 27.3 0 34.8 9.4 72.7 33.2 95.3-5.9 1.6-11.9 2.4-18 2.4-109.6 0-175.3-162.8-112.9-269.4h0zm-99.5 146.6C110 348 96 355.1 82.8 363.5c26.7 48.4 59.5 84.9 109.3 89-34.7-24.2-55.3-65.2-67.6-110.3h0zm69.6-124.5L124.8 204c5.3 179.5 56.9 248.1 135.2 253-34.1-24.9-57.4-64.3-68.9-104.4-12.6-43.8-12.5-91.9 3-134.9z" fill="#4f5b62"/></svg>