<svg xmlns="http://www.w3.org/2000/svg" class="mission-svg" viewBox="0 0 462.47 462.47"><defs></defs>
  <path fill="#ffffff" d="M262.86,310.19a144.85,144.85,0,0,1-76.1,21.66c-80.42,0-145.84-65.42-145.84-145.85S106.35,40.15,186.76,40.15,332.62,105.57,332.62,186A144.84,144.84,0,0,1,311,262.09l22.28,22.28a175.5,175.5,0,0,0,30-98.37C363.28,88.69,284.09,9.5,186.76,9.5S10.27,88.69,10.27,186s79.17,176.5,176.5,176.5a175.5,175.5,0,0,0,98.37-30Z"></path>
  <path fill="#ffffff" d="M284.4,235.51a110,110,0,1,0-48.1,48.11l-23.47-23.47a77.81,77.81,0,0,1-26.06,4.79A78.93,78.93,0,1,1,265.7,186a78,78,0,0,1-4.77,26Z"></path>
  <path fill="#ffffff" d="M231.33,195.66c.7,0,1.37.18,2.07.24a47.67,47.67,0,1,0-46.64,37.78,49,49,0,0,0,9.92-1c-.06-.7-.22-1.38-.24-2.06L171.8,205.93A24.68,24.68,0,0,1,206.74,171Z"></path>
  <path fill="#ffffff" d="M388.49,454.15a5.85,5.85,0,0,0,4-4.7l7-50.17,50.75-7.59a5.92,5.92,0,0,0,4.72-4,5.78,5.78,0,0,0,.3-1.83,5.9,5.9,0,0,0-1.73-4.16l-54.05-54.07a5.85,5.85,0,0,0-5-1.65l-36,5.27L243.42,216.21a18.41,18.41,0,0,0-17.8-4.58L195.9,181.88a9.35,9.35,0,0,0-13.22,13.23l29.74,29.73a19.79,19.79,0,0,0-.65,5A17.82,17.82,0,0,0,217,242.63L332,357.7l-5.28,36a6.78,6.78,0,0,0-.06.84,5.88,5.88,0,0,0,1.72,4.16l54.08,54A5.77,5.77,0,0,0,388.49,454.15Z"></path>
</svg>