<svg xmlns="http://www.w3.org/2000/svg" class="vision-svg" data-name="1" viewBox="0 0 307.59 172.15">
  <defs></defs>
  <path fill="#ffffff" d="M67.2,57.92a51.47,51.47,0,1,0,51.47,51.47A51.47,51.47,0,0,0,67.2,57.92Zm0,89.44a38,38,0,1,1,38-38A38,38,0,0,1,67.2,147.36Z"></path>
  <path fill="#ffffff" d="M247.78,57.92a51.47,51.47,0,1,0,51.47,51.47A51.47,51.47,0,0,0,247.78,57.92Zm0,89.44a38,38,0,1,1,38-38A38,38,0,0,1,247.78,147.36Z"></path>
  <path fill="#ffffff" d="M15.73,71.42S41.89,36,60.45,21.63s58.22-6.75,68.35,0c0,0,6.75-5.34,23.63-8.15a41,41,0,0,1,28.69,5.62s42.19-7.33,58.22-6.2,54.85,58.51,54.85,58.51S268,41,228.37,48.63s-44.72,53.82-44.72,53.82S189.55,55.64,155,57.62s-24.47,44.84-24.47,44.84S101.8-.31,15.73,71.42Z"></path>
  <circle fill="#ffffff" cx="154.96" cy="81.32" r="16.25"></circle>
</svg>